<svg version="1.1" id="Layer_1" xmlns="http://www.w3.org/2000/svg" xmlns:xlink="http://www.w3.org/1999/xlink" x="0px" y="0px"
	 width="100%" viewBox="0 0 1024 1024" enable-background="new 0 0 1024 1024" xml:space="preserve">
	 <circle cx="512" cy="512" r="400" fill="white" />
<path fill="#000000" opacity="1.000000" stroke="none" 
	d="
M552.000000,1025.000000 
	C527.645752,1025.000000 503.291534,1025.000000 478.728271,1024.878296 
	C479.419495,1024.408569 480.319763,1024.060669 481.324860,1023.672180 
	C479.559357,1022.593079 477.183228,1023.931641 475.855042,1021.983032 
	C476.298248,1020.719666 477.435089,1020.793274 478.324554,1020.462402 
	C480.676941,1019.587219 484.046814,1019.994934 484.156097,1016.199707 
	C484.254852,1012.768188 483.851776,1009.705139 479.707703,1008.366028 
	C477.404358,1007.621643 475.404175,1005.867920 473.344696,1004.456238 
	C470.172699,1002.282043 468.412354,999.518188 469.951721,995.508240 
	C471.075806,992.580261 469.922943,990.203979 467.759369,988.373169 
	C462.657806,984.056274 457.340515,979.881592 450.821289,978.038025 
	C438.159637,974.457520 425.381897,971.289795 412.677856,967.856262 
	C390.905487,961.971802 369.348938,955.655640 351.706085,940.465698 
	C346.812836,936.252747 342.009369,931.877563 336.243378,928.708252 
	C326.604095,923.410034 316.402130,919.418640 306.356079,915.027893 
	C291.561340,908.561584 276.968811,901.625916 262.364807,894.731995 
	C247.022507,887.489624 230.908203,881.839478 216.440536,872.796631 
	C209.532425,868.478821 203.564560,862.769043 196.182236,859.108887 
	C182.451447,852.301147 173.124374,840.877380 164.181381,828.892029 
	C156.151672,818.130676 154.851807,804.535767 146.948074,793.282104 
	C135.230362,776.597961 123.736305,759.761108 111.090530,743.755432 
	C108.450500,740.413940 107.129700,737.083618 108.402557,733.191162 
	C110.305588,727.371521 109.940186,721.805725 108.171249,716.038940 
	C107.257874,713.061218 107.312653,709.790100 106.895020,706.656189 
	C105.142693,693.507019 106.019096,679.681396 99.087479,667.763550 
	C94.250443,659.446899 91.817963,650.703064 90.680244,641.361572 
	C90.358154,638.717041 89.735397,636.046082 88.027321,633.899353 
	C84.788971,629.829224 84.339401,625.181519 84.555199,620.209473 
	C84.843681,613.562317 86.683113,606.936279 85.591255,600.293274 
	C82.111809,579.123474 86.768250,558.900391 92.443497,538.794250 
	C93.652382,534.511414 94.324257,530.346863 92.980293,526.035156 
	C91.273750,520.560120 91.133530,514.933289 90.867508,509.250702 
	C90.367111,498.561462 93.818642,488.164703 92.745697,477.447998 
	C91.783966,467.842133 96.547485,459.421173 98.570892,450.432159 
	C100.795525,440.549225 105.685104,432.124390 110.542183,423.710449 
	C113.592247,418.426788 115.410858,413.206726 115.698219,407.312286 
	C115.884682,403.487549 115.811195,399.649048 115.813713,395.816650 
	C115.823586,380.773804 116.766754,365.852295 121.122498,351.319031 
	C122.369591,347.158051 122.748764,342.834656 123.046936,338.493439 
	C123.400284,333.348755 123.480804,327.940643 126.502068,323.563202 
	C129.686493,318.949341 131.468582,313.854065 133.528900,308.751221 
	C138.284622,296.972565 145.133316,287.545563 159.940109,288.895630 
	C161.434799,289.031921 163.002228,288.718933 164.209518,287.741425 
	C175.973572,278.216705 188.341690,269.213531 196.492722,256.111267 
	C200.807816,249.175049 206.202271,243.409988 212.480133,238.425934 
	C227.927383,226.162155 237.945404,210.241379 244.936279,192.032318 
	C248.585022,182.528473 253.388748,173.554932 261.127167,166.558365 
	C264.084320,163.884720 267.711823,162.084625 270.404327,159.015244 
	C282.132050,145.646118 297.212677,138.886581 314.518188,135.642334 
	C324.600220,133.752258 335.055023,131.343765 344.027557,126.653633 
	C356.258209,120.260399 369.215088,115.254372 380.882080,107.733856 
	C386.395721,104.179764 392.625305,101.982407 399.284760,101.977333 
	C411.274139,101.968185 423.104156,101.181564 435.060730,99.591805 
	C447.793701,97.898811 459.821136,94.610283 471.705780,90.250862 
	C489.056335,83.886482 505.700500,75.771080 523.352600,70.082764 
	C543.419312,63.616367 562.484497,65.963326 581.046326,74.841904 
	C586.408691,77.406860 591.833679,79.407112 597.688293,79.771660 
	C605.435242,80.253998 612.329895,82.954620 618.684998,87.093315 
	C625.982422,91.845657 633.488708,96.179222 641.851746,98.664497 
	C655.907410,102.841484 669.349487,108.870186 683.644409,112.312019 
	C695.057129,115.059914 705.810669,119.597786 716.133240,125.080811 
	C733.063599,134.073669 748.493530,145.536301 765.006897,155.198364 
	C774.467102,160.733582 781.879028,168.792953 790.923279,174.688019 
	C802.221375,182.052139 813.716125,189.134491 825.173279,196.258011 
	C835.551208,202.710541 846.128906,209.224976 852.944946,220.147476 
	C858.167603,228.516449 861.181152,237.737488 863.122681,247.102234 
	C865.792664,259.979950 871.859924,271.038361 880.096191,280.618774 
	C887.166260,288.842743 891.475830,298.032471 895.259033,307.881104 
	C904.167053,331.071228 913.373901,354.145935 928.798096,374.055573 
	C934.526123,381.449310 941.518311,387.597534 950.265808,390.569824 
	C958.942993,393.518219 963.523926,398.960938 965.004395,407.540680 
	C966.316406,415.144440 966.566223,422.885559 965.434570,430.459229 
	C962.122131,452.627014 964.943970,474.233856 969.910950,495.839996 
	C974.013306,513.684753 974.401917,531.796448 971.739136,549.957703 
	C969.928101,562.308838 966.454651,574.624939 967.502625,587.117920 
	C968.594543,600.134766 968.241882,613.085388 967.989380,626.051575 
	C967.695801,641.132263 960.393738,652.676453 949.207458,662.537415 
	C939.999939,670.654053 933.119812,680.281494 936.350281,693.951050 
	C937.948181,700.712463 938.069153,707.984497 934.450378,713.957825 
	C929.493896,722.139343 927.936584,731.849609 922.386108,739.555054 
	C918.041260,745.586792 915.247620,752.471802 910.095581,758.159119 
	C903.379089,765.573547 895.007507,771.313599 889.220642,779.605469 
	C879.975830,792.852051 870.768860,806.132385 861.178772,819.127441 
	C856.254395,825.800354 853.121460,834.013977 846.220093,838.974304 
	C838.675720,844.396912 831.262329,850.002747 823.718811,855.389893 
	C809.105164,865.826294 796.568665,878.680786 782.274048,889.484131 
	C774.225586,895.566772 766.419495,901.687500 756.678955,904.580139 
	C741.857544,908.981628 729.425598,917.171448 719.968201,929.132324 
	C712.417969,938.681152 702.875244,945.748474 691.995300,949.254700 
	C674.802185,954.795410 658.319946,961.849976 641.738220,968.774902 
	C629.131958,974.039490 616.039612,978.007507 603.617065,983.802551 
	C590.487671,989.927307 577.067200,995.370239 562.138733,995.600891 
	C558.035095,995.664307 553.856689,996.717285 549.879150,997.883850 
	C541.997375,1000.195435 535.182007,1004.427917 528.329834,1010.882874 
	C539.539551,1013.701782 547.542114,1021.836548 559.102234,1021.196167 
	C558.969788,1021.714233 558.837341,1022.232300 558.704956,1022.750366 
	C554.769653,1022.958618 550.834412,1023.166870 545.942688,1023.425720 
	C548.576172,1024.110107 550.288086,1024.555054 552.000000,1025.000000 
M365.488190,665.908569 
	C391.908173,649.403381 418.359283,632.947510 444.717255,616.343872 
	C449.057251,613.610046 452.693970,612.415527 458.001770,614.862366 
	C467.337494,619.165955 478.601959,614.479248 483.082428,605.487244 
	C486.912842,597.800049 486.547974,590.138184 481.549194,583.265625 
	C476.295410,576.042542 468.647766,573.412415 459.927277,574.842102 
	C456.186401,575.455383 453.203064,574.991943 450.121521,572.779297 
	C438.472198,564.414612 426.030762,557.271912 413.787903,549.840881 
	C409.398254,547.176514 407.662384,544.004761 407.778656,538.884644 
	C408.115295,524.059998 408.294403,509.218414 407.938782,494.397827 
	C407.794342,488.377472 410.036713,485.027374 415.107147,482.149292 
	C433.941528,471.458466 452.659180,460.553589 471.242371,449.431213 
	C487.974976,439.416382 484.289856,445.013702 484.650238,425.040375 
	C484.757324,419.108002 483.339966,418.331787 478.214539,421.299683 
	C448.953217,438.243347 419.737946,455.266632 390.468597,472.196320 
	C387.555084,473.881531 386.276001,476.011932 386.292267,479.443298 
	C386.403503,502.939178 386.416351,526.436035 386.316772,549.931885 
	C386.300995,553.653015 387.501587,556.209717 390.678528,558.211487 
	C406.182617,567.980286 421.571808,577.931519 437.082947,587.688965 
	C443.503418,591.727905 443.639160,594.183350 437.042542,598.237793 
	C415.613556,611.408569 394.150970,624.524658 372.688446,637.640808 
	C371.015961,638.662903 369.370636,639.881775 366.991974,639.615967 
	C365.436371,637.469482 365.882477,634.905273 365.879578,632.478149 
	C365.793884,560.656067 365.784790,488.833862 365.565643,417.012299 
	C365.550415,412.028320 367.124664,409.190521 371.430756,406.699890 
	C420.029816,378.590637 468.568359,350.375549 516.973267,321.933777 
	C521.616577,319.205383 524.937622,319.524902 529.217651,322.184937 
	C557.090332,339.507843 585.076721,356.647675 613.030457,373.840057 
	C614.429749,374.700745 615.902039,376.175415 617.572998,375.369415 
	C624.079224,372.231171 630.539246,368.964966 636.680176,363.814606 
	C633.400452,361.600220 630.874939,359.742218 628.207520,358.117279 
	C593.924622,337.233032 559.596313,316.423126 525.362305,295.459259 
	C521.942261,293.364960 519.339722,293.987671 516.183594,295.791779 
	C460.365356,327.699280 404.523315,359.565338 348.616669,391.317566 
	C344.218994,393.815247 342.247406,396.745483 342.289551,401.996704 
	C342.496674,427.824036 342.248810,453.654694 342.362976,479.483307 
	C342.380676,483.494293 341.064850,485.863373 337.558563,487.843201 
	C324.940277,494.968414 312.485474,502.383423 299.976288,509.701538 
	C295.815125,512.135864 293.907196,518.939026 296.214600,522.999939 
	C298.858276,527.652710 305.931976,530.027588 310.167297,527.560120 
	C318.659943,522.612427 327.083313,517.545776 335.582367,512.609314 
	C337.383789,511.563049 339.066650,509.962769 341.703918,510.450867 
	C342.651825,512.621582 342.293518,514.964172 342.295166,517.233826 
	C342.326355,559.727173 341.936707,602.226868 342.612183,644.709595 
	C342.785614,655.617676 340.249481,662.934265 330.252594,667.965759 
	C325.889435,670.161865 322.356232,672.508545 317.446564,670.161621 
	C314.827942,668.909790 311.873535,669.251709 309.055786,669.349365 
	C295.562561,669.816772 285.302948,675.746643 279.639954,688.153076 
	C273.991791,700.527161 275.655212,712.426758 284.750336,722.554688 
	C294.202759,733.080505 306.257355,736.097229 319.764587,731.937683 
	C334.452271,727.414551 346.179962,710.185120 339.033600,689.654480 
	C337.757446,685.988281 338.551270,683.977478 341.521088,681.708313 
	C348.960052,676.024231 357.028564,671.340454 365.488190,665.908569 
M676.241760,453.501251 
	C676.239929,498.493195 676.169983,543.485352 676.335083,588.476685 
	C676.352844,593.316162 674.744324,596.140503 670.479553,598.258972 
	C665.270630,600.846252 660.371094,604.052795 655.315979,606.953552 
	C611.975342,631.823242 568.612854,656.654785 525.325012,681.615967 
	C522.518372,683.234436 520.562500,682.745422 518.055481,681.257935 
	C496.851044,668.677673 475.591675,656.189880 454.325470,643.714111 
	C452.196594,642.465149 449.880585,640.297546 447.485596,641.176636 
	C440.664703,643.680115 434.539368,647.522400 428.868103,652.158508 
	C430.033447,654.441650 431.803558,655.114380 433.338226,656.039734 
	C459.587585,671.868347 486.136261,687.229614 511.928070,703.771118 
	C520.149780,709.044006 525.890076,708.466309 533.836304,703.923706 
	C587.201782,673.416931 640.809692,643.333740 694.412292,613.243774 
	C698.221375,611.105469 699.899109,608.611145 699.915710,604.215393 
	C699.981567,586.722961 700.474060,569.231812 700.489502,551.739929 
	C700.493042,547.694214 701.873596,545.358032 705.288330,543.411560 
	C714.549561,538.132629 723.690674,532.638855 732.808533,527.113403 
	C747.680847,518.100708 747.656921,518.062622 764.676697,522.299438 
	C765.484070,522.500366 766.296936,522.695862 767.118347,522.821045 
	C770.186707,523.288879 771.893677,524.927551 773.105408,527.939453 
	C778.645081,541.708252 793.132263,549.763367 807.351807,547.307739 
	C821.348450,544.890686 832.754272,532.687927 833.722351,519.094910 
	C834.886230,502.752258 826.575134,490.263794 811.332825,485.451721 
	C797.755249,481.165222 782.341614,486.985657 775.055603,499.499176 
	C773.093689,502.868713 770.962769,503.695679 767.322083,502.791412 
	C761.353821,501.308899 755.234070,500.433777 749.270630,498.934875 
	C745.410828,497.964752 742.147095,498.632812 738.800415,500.592072 
	C727.875793,506.987732 716.879211,513.260925 705.883545,519.534363 
	C704.391174,520.385864 703.057556,521.959412 700.801575,521.115967 
	C700.647644,520.162292 700.359009,519.197998 700.355408,518.232666 
	C700.196289,475.411224 700.069092,432.589722 699.921631,389.768250 
	C699.862671,372.657471 699.873352,372.699677 714.017883,363.250946 
	C716.354614,361.690002 718.314087,361.419098 720.935730,362.612152 
	C727.873840,365.769562 735.046631,367.095428 742.779236,365.612030 
	C759.821045,362.342743 770.237122,345.693451 769.153687,332.463531 
	C767.576294,313.202118 752.510620,301.107086 733.129272,302.380463 
	C716.164551,303.495056 700.587646,320.882172 703.814636,336.998474 
	C705.510498,345.467804 703.113708,349.755859 696.267029,353.119232 
	C695.674866,353.410126 695.109680,353.798981 694.613403,354.235016 
	C690.682190,357.689270 686.526611,358.452972 681.294189,356.938965 
	C675.052979,355.133118 669.088135,356.970367 664.003052,361.095215 
	C653.244385,369.822266 651.689697,390.304901 670.686951,396.360870 
	C675.188538,397.795837 676.528015,399.966400 676.447998,404.511566 
	C676.166687,420.504364 676.288513,436.504211 676.241760,453.501251 
M530.145813,446.471130 
	C530.076294,433.145966 530.036560,419.820557 529.919861,406.495819 
	C529.882935,402.280548 524.590942,396.800293 520.864563,396.928497 
	C515.384094,397.117035 507.230316,405.491089 507.230225,410.976746 
	C507.228943,486.766205 507.349243,562.556091 507.057770,638.344421 
	C507.029358,645.733704 508.932800,650.377075 515.435486,654.007385 
	C519.713989,656.395996 522.815430,656.910339 527.213623,654.345398 
	C558.859436,635.890320 590.661316,617.702881 622.393555,599.395569 
	C624.073792,598.426147 626.054993,597.709045 627.206360,594.932434 
	C622.880493,591.128357 617.700317,588.258057 612.692688,585.138245 
	C609.828918,583.354065 607.346497,583.564697 604.378784,585.306519 
	C582.266296,598.284790 560.063965,611.110352 537.860718,623.933350 
	C535.764465,625.144104 533.758789,626.798889 530.101318,626.490906 
	C529.330872,566.805725 531.511780,507.123383 530.145813,446.471130 
M593.891663,727.469727 
	C572.726501,739.755798 551.556335,752.033081 530.403931,764.341125 
	C528.261108,765.588013 525.099854,766.581604 524.370361,768.455444 
	C522.747314,772.624146 519.597473,772.839233 516.180054,773.546814 
	C502.556519,776.367737 493.583282,786.534729 490.657959,802.226807 
	C488.679138,812.841248 495.128967,826.168030 505.274078,832.427002 
	C516.796265,839.535522 531.203186,839.055176 541.912476,831.205444 
	C556.055115,820.839050 558.766235,801.155762 548.098694,786.291687 
	C543.804504,780.308167 543.736328,780.192139 550.148438,776.423035 
	C566.224548,766.973328 582.358582,757.622131 598.487305,748.262268 
	C623.258423,733.886902 648.063171,719.569336 672.803528,705.141357 
	C676.375549,703.058228 681.176514,701.502319 682.681885,697.820862 
	C685.595947,690.694336 687.129150,683.002441 689.192505,675.533325 
	C689.234070,675.382812 688.760986,675.090088 687.801147,674.157410 
	C656.382385,690.794312 625.893311,709.740479 593.891663,727.469727 
M551.842590,240.287643 
	C557.356140,225.156708 552.990112,210.844040 540.335388,202.564804 
	C527.740784,194.324951 510.404907,195.925537 499.685638,206.206284 
	C493.802765,211.848465 491.359772,218.961273 490.711731,226.790253 
	C489.836548,237.363129 494.859741,245.595490 501.951172,252.585068 
	C500.620239,255.144196 498.538971,255.981873 496.726959,257.065643 
	C490.294891,260.912689 483.813324,264.677399 477.334076,268.445068 
	C442.202057,288.874115 407.170654,309.480225 371.850098,329.578003 
	C363.772919,334.174011 358.065338,339.479828 357.378479,349.129395 
	C357.239532,351.081787 356.350708,352.975464 355.861725,354.909882 
	C355.432983,356.605957 353.833099,358.563202 355.548920,360.001099 
	C357.461182,361.603668 359.335602,359.707611 360.972046,358.785248 
	C369.678680,353.877747 378.316254,348.847748 386.979706,343.863556 
	C429.863708,319.192139 472.747467,294.520355 515.634705,269.854553 
	C518.272583,268.337402 520.832214,266.854858 521.050659,263.275024 
	C521.223389,260.444092 523.424316,260.077942 525.696777,259.773590 
	C537.681335,258.168579 546.288208,251.863266 551.842590,240.287643 
M542.066101,383.387787 
	C562.508423,395.922607 582.977783,408.413666 603.366516,421.035065 
	C606.795837,423.157959 609.767029,423.817444 613.432251,421.452911 
	C619.164429,417.754944 624.849915,413.674408 631.123901,411.195251 
	C642.100098,406.857971 645.616638,399.255524 643.634644,388.251404 
	C643.576416,387.927948 643.630798,387.585724 643.611877,387.253418 
	C643.337402,382.430023 641.984863,381.612061 637.665344,383.999725 
	C630.816711,387.785431 623.777832,391.325439 617.349426,395.741028 
	C612.441406,399.112244 608.847351,398.576355 603.981812,395.562347 
	C578.926575,380.041443 553.564575,365.016235 528.468811,349.559601 
	C523.702942,346.624329 520.020874,346.813354 515.274841,349.622314 
	C486.905396,366.412720 458.354034,382.895599 429.886780,399.521118 
	C424.638336,402.586365 419.495514,405.832489 413.484894,409.494110 
	C417.929077,412.338440 421.782104,414.342621 425.088928,417.021118 
	C431.150299,421.930786 436.285889,421.306854 442.950653,417.225586 
	C467.231110,402.357056 492.001862,388.290924 516.497437,373.769958 
	C520.100769,371.633942 523.122864,371.443115 526.611877,373.754974 
	C531.468262,376.972778 536.498108,379.928864 542.066101,383.387787 
M739.099731,669.363586 
	C715.121643,667.124573 699.144409,690.123352 704.396484,709.311157 
	C708.627625,724.769348 724.035645,735.455933 740.020752,733.576416 
	C755.390808,731.769165 768.205322,717.952820 768.844055,702.499878 
	C769.546143,685.514038 758.741272,673.122620 739.099731,669.363586 
M654.606567,486.500244 
	C654.605774,477.334717 654.605652,468.169220 654.604004,459.003693 
	C654.602173,448.838348 654.688232,438.671814 654.557556,428.508118 
	C654.495667,423.689484 652.850769,422.838348 648.683960,425.108490 
	C644.881226,427.180298 641.172974,429.436920 637.300171,431.365234 
	C634.392029,432.813232 633.300110,434.862335 633.305908,438.109009 
	C633.382935,481.436707 633.358154,524.764587 633.367004,568.092407 
	C633.367310,569.746948 633.045654,571.688965 634.550537,572.763000 
	C640.427185,576.957275 646.466980,580.901733 654.607117,584.734741 
	C654.607117,551.300232 654.607117,519.400269 654.606567,486.500244 
M339.827942,323.683136 
	C335.327423,310.601532 323.723450,302.417877 309.331665,302.175659 
	C295.833862,301.948486 283.896729,310.086517 278.858398,322.462708 
	C271.126801,341.454498 283.124481,366.307770 308.952393,366.287750 
	C333.304413,366.268890 345.950745,342.175079 339.827942,323.683136 
M427.884735,678.702087 
	C422.019073,675.205566 416.162628,671.693420 410.281158,668.223694 
	C408.865326,667.388550 407.278473,665.940857 405.704132,666.699707 
	C399.373291,669.751038 393.099304,672.968079 388.014069,677.792297 
	C389.170410,680.151367 390.851959,681.001770 392.391205,681.945496 
	C432.715515,706.668518 473.152954,731.202881 514.036377,754.995911 
	C516.643677,756.513184 518.883667,756.804260 521.405151,755.019714 
	C523.030823,753.869202 524.818115,752.941650 526.559326,751.960876 
	C530.704346,749.626038 532.163269,745.913025 530.510437,741.596741 
	C529.455688,738.841980 526.722229,737.932434 524.499695,736.596680 
	C492.528473,717.382202 460.516510,698.235474 427.884735,678.702087 
M219.102509,496.598145 
	C215.127716,501.940918 212.746582,507.989807 212.436142,514.574280 
	C211.813080,527.789795 217.403625,538.023926 229.182693,543.953674 
	C240.697495,549.750366 252.440506,549.522949 263.015106,541.358337 
	C273.927185,532.933167 278.036652,521.539612 274.939819,508.176605 
	C271.995850,495.473114 263.382507,487.591217 250.784180,485.025085 
	C238.489441,482.520813 227.779160,486.210449 219.102509,496.598145 
M661.164917,258.403503 
	C637.433777,244.600784 612.276672,234.283020 585.622375,227.693832 
	C575.385925,225.163284 575.358276,225.293961 573.216492,235.481308 
	C573.011597,236.456100 572.668213,237.401382 572.454041,238.374649 
	C570.993042,245.013321 571.380920,245.627426 577.930115,247.354126 
	C615.090820,257.151550 648.728760,274.237640 679.661133,296.809326 
	C691.289062,305.294312 691.159912,305.471313 701.455017,295.671143 
	C706.269958,291.087708 706.348206,290.702026 701.431396,286.481201 
	C689.144348,275.933411 675.703186,267.017395 661.164917,258.403503 
M377.122406,742.446655 
	C371.433167,738.388062 365.722473,734.359070 360.066345,730.254822 
	C358.101898,728.829407 356.384430,728.179749 354.404999,730.306152 
	C351.116730,733.838440 347.712250,737.264954 344.294189,740.673279 
	C342.577850,742.384766 342.832672,743.837891 344.557983,745.287415 
	C346.214569,746.679077 347.796814,748.167969 349.521454,749.468689 
	C382.730103,774.515442 419.139526,792.986938 459.678864,802.917297 
	C470.355286,805.532471 470.373993,805.456055 472.361420,794.923523 
	C474.206940,785.142944 474.218781,785.101868 464.621460,782.336304 
	C433.718506,773.431213 404.491455,760.848999 377.122406,742.446655 
M636.946533,785.386230 
	C647.601135,780.641724 657.894592,775.182068 667.958191,769.314819 
	C678.898621,762.936462 689.199951,755.578247 699.179443,747.796997 
	C704.363525,743.754822 704.251160,743.169800 699.832886,738.582947 
	C697.755615,736.426514 695.522461,734.355286 693.810608,731.927673 
	C691.465637,728.602417 689.455688,729.020630 686.491333,731.242981 
	C655.107056,754.771790 620.201782,771.172424 582.642944,782.117065 
	C571.687378,785.309448 571.676514,785.257324 573.279419,796.198914 
	C573.423889,797.184753 573.400513,798.197388 573.573120,799.176697 
	C574.531433,804.612366 575.468262,805.189880 580.960510,804.059631 
	C600.117859,800.117310 618.383484,793.498413 636.946533,785.386230 
M444.778076,254.144028 
	C450.638977,252.280518 456.487976,250.378433 462.363281,248.561523 
	C474.608765,244.774689 475.037903,247.476288 471.824127,233.520599 
	C470.099884,226.033188 469.282318,225.149170 461.727020,227.091110 
	C419.040131,238.062988 380.516937,257.291870 346.562500,285.498138 
	C340.923859,290.182220 340.960724,290.208527 346.237976,295.634552 
	C347.396759,296.826019 348.479828,298.091644 349.586823,299.332855 
	C354.893402,305.282776 354.938660,305.342896 361.068634,300.496399 
	C386.219513,280.611633 413.973663,265.432922 444.778076,254.144028 
M745.952515,612.715332 
	C748.503540,601.542114 751.080444,590.374756 753.597351,579.193909 
	C755.567200,570.443542 757.332520,561.644897 759.439453,552.928345 
	C760.733459,547.574768 757.336609,545.125488 753.929382,542.284363 
	C750.821533,539.692932 748.482727,541.642395 745.742554,542.798584 
	C742.154907,544.312317 740.433838,546.907532 739.605347,550.609009 
	C734.924561,571.523254 730.084778,592.401855 725.370483,613.308655 
	C723.068970,623.515259 720.899902,633.752014 718.713562,643.984192 
	C717.425781,650.011169 718.771179,651.300293 724.656921,649.971130 
	C727.572937,649.312439 730.510864,648.670410 733.474365,648.322998 
	C736.943970,647.916321 738.712219,646.180420 739.416260,642.752686 
	C741.421326,632.990540 743.630737,623.270325 745.952515,612.715332 
M765.193359,657.255615 
	C766.358215,658.199097 767.522034,659.143860 768.688110,660.085876 
	C773.350037,663.852356 773.432800,663.892517 776.050049,658.551636 
	C779.493164,651.525208 782.923767,644.487183 786.125000,637.348816 
	C795.082153,617.374756 801.457520,596.595520 805.329224,575.039917 
	C806.000854,571.300354 805.088257,569.256714 800.976501,569.125916 
	C797.655701,569.020325 794.332153,568.717651 791.032104,568.317932 
	C786.925171,567.820557 785.189209,569.623474 784.169373,573.589355 
	C778.069153,597.311401 770.284424,620.487854 760.840210,643.095093 
	C757.385620,651.364563 757.339111,651.345154 765.193359,657.255615 
M241.245590,573.250732 
	C241.831970,581.935730 244.029938,590.304016 246.364777,598.629028 
	C252.182144,619.371216 259.737671,639.430054 270.000305,658.427002 
	C271.794647,661.748474 273.512543,663.581909 277.171112,660.537109 
	C279.980530,658.199036 283.020599,656.106262 286.114166,654.151367 
	C288.701874,652.516235 289.173126,650.879944 287.841858,647.985291 
	C277.870911,626.305420 270.098877,603.826904 263.848267,580.808472 
	C260.045868,566.805725 260.014648,566.813782 245.437042,568.907654 
	C244.777420,569.002319 244.119507,569.110107 243.462570,569.222168 
	C241.595932,569.540222 241.053223,570.778870 241.245590,573.250732 
M294.291901,449.489899 
	C291.325653,462.625549 289.064056,475.871368 286.953644,490.134064 
	C294.021240,487.564880 298.894958,483.719086 304.327820,480.959656 
	C307.383209,479.407776 309.110657,477.167450 309.771027,473.743713 
	C315.177704,445.713135 320.675934,417.700195 326.172607,389.687073 
	C326.951630,385.716980 324.862610,384.846313 321.636475,385.527252 
	C318.388763,386.212738 315.251068,387.452087 311.991455,388.040131 
	C308.189423,388.726044 306.511353,390.776520 305.594879,394.512451 
	C301.200348,412.426971 298.145264,430.610687 294.291901,449.489899 
M798.871582,430.432739 
	C797.536316,426.322723 796.215210,422.208038 794.863159,418.103577 
	C790.109558,403.672058 783.579956,390.041840 776.244446,376.770691 
	C774.553711,373.711853 772.834534,371.841705 769.432190,374.994019 
	C766.631348,377.589050 763.629761,379.997101 760.535034,382.236450 
	C757.859558,384.172424 757.683716,386.083282 759.083313,389.011475 
	C764.605408,400.564392 769.757263,412.278412 773.886536,424.429688 
	C777.899841,436.239624 781.463989,448.164825 784.284973,460.316681 
	C784.884399,462.898804 785.472778,465.730835 789.259949,465.265320 
	C793.050964,464.799408 796.840271,464.175262 800.646851,464.017273 
	C805.337402,463.822601 806.240540,461.276733 805.391052,457.354736 
	C803.492737,448.589966 801.868164,439.759094 798.871582,430.432739 
M282.186432,398.818207 
	C282.325714,398.516296 282.505951,398.226349 282.598145,397.910675 
	C283.895630,393.468018 288.710510,389.632690 287.464905,385.216949 
	C286.257690,380.937469 280.842834,379.032501 277.389740,375.954620 
	C272.976227,372.020660 272.556885,372.144287 269.612457,377.535522 
	C260.815857,393.641998 253.901093,410.550568 248.413116,428.035004 
	C245.231461,438.171570 242.232864,448.368347 241.144287,459.025238 
	C240.842606,461.978485 241.713013,463.296814 244.628677,463.803375 
	C248.090286,464.404785 251.577530,464.406799 255.036942,464.766266 
	C259.804260,465.261688 261.810974,463.381989 262.801697,458.730621 
	C267.140778,438.358185 273.991211,418.761688 282.186432,398.818207 
z"/>
</svg>